<svg xmlns="http://www.w3.org/2000/svg" viewBox="0 0 600 750" width="600" height="750" preserveAspectRatio="xMidYMid slice">
  <defs>
    <radialGradient id="bg" cx="50%" cy="40%" r="80%">
      <stop offset="0%" stop-color="#690dac" stop-opacity="0.55"/>
      <stop offset="50%" stop-color="#301934"/>
      <stop offset="100%" stop-color="#1a0b1e"/>
    </radialGradient>
    <radialGradient id="glow" cx="50%" cy="50%" r="50%">
      <stop offset="0%" stop-color="#eed977" stop-opacity="0.4"/>
      <stop offset="100%" stop-color="#eed977" stop-opacity="0"/>
    </radialGradient>
    <filter id="soft">
      <feGaussianBlur stdDeviation="0.4"/>
    </filter>
  </defs>
  <rect width="600" height="750" fill="url(#bg)"/>
  <circle cx="300" cy="320" r="180" fill="url(#glow)"/>

  <g fill="#f5edd1" filter="url(#soft)" opacity="0.85">
    <circle cx="72" cy="135" r="1.6"/>
    <circle cx="198" cy="315" r="0.9"/>
    <circle cx="426" cy="90" r="2.2"/>
    <circle cx="504" cy="480" r="1.1"/>
    <circle cx="132" cy="585" r="1.5"/>
    <circle cx="348" cy="660" r="1"/>
    <circle cx="546" cy="240" r="1.2"/>
    <circle cx="282" cy="420" r="0.8"/>
    <circle cx="48" cy="390" r="1"/>
    <circle cx="384" cy="210" r="1.3"/>
    <circle cx="450" cy="555" r="0.9"/>
    <circle cx="120" cy="240" r="0.8"/>
    <circle cx="552" cy="660" r="1.4"/>
    <circle cx="240" cy="540" r="0.8"/>
  </g>

  <g fill="#eed977">
    <circle cx="156" cy="105" r="2.2"/>
    <circle cx="468" cy="345" r="1.8"/>
    <circle cx="84" cy="600" r="1.5"/>
    <circle cx="510" cy="120" r="1.6"/>
  </g>

  <g transform="translate(300 330)" text-anchor="middle" font-family="'Times New Roman', serif" fill="#eed977">
    <text y="0" font-size="56" font-style="italic" letter-spacing="0.02em" opacity="0.95">ZenAura</text>
    <text y="44" font-size="14" letter-spacing="0.3em" opacity="0.6">B  A  L  I</text>
  </g>

  <g transform="translate(300 600)" text-anchor="middle" font-family="Georgia, serif" fill="#f5edd1" opacity="0.55">
    <text y="0" font-size="11" letter-spacing="0.32em">FORTHCOMING</text>
    <line x1="-40" y1="14" x2="40" y2="14" stroke="#eed977" stroke-width="0.5" opacity="0.5"/>
    <text y="34" font-size="12" font-style="italic">photography in process</text>
  </g>
</svg>
